<svg xmlns="http://www.w3.org/2000/svg" viewBox="0 0 32 32">
  <rect width="32" height="32" rx="4" fill="#2563eb"/>
  <path d="M8 6h12a2 2 0 0 1 2 2v16a2 2 0 0 1-2 2H8a2 2 0 0 1-2-2V8a2 2 0 0 1 2-2z" fill="white" opacity="0.9"/>
  <path d="M24 8v16a2 2 0 0 1-2 2h2a2 2 0 0 0 2-2V8a2 2 0 0 0-2-2h-2a2 2 0 0 1 2 2z" fill="white" opacity="0.5"/>
  <rect x="9" y="10" width="10" height="1.5" rx="0.75" fill="#2563eb" opacity="0.6"/>
  <rect x="9" y="13.5" width="8" height="1.5" rx="0.75" fill="#2563eb" opacity="0.4"/>
  <rect x="9" y="17" width="10" height="1.5" rx="0.75" fill="#2563eb" opacity="0.6"/>
  <rect x="9" y="20.5" width="6" height="1.5" rx="0.75" fill="#2563eb" opacity="0.4"/>
</svg>
